<?xml version="1.0" encoding="UTF-8" standalone="no"?>
<svg
   xmlns:dc="http://purl.org/dc/elements/1.1/"
   xmlns:cc="http://creativecommons.org/ns#"
   xmlns:rdf="http://www.w3.org/1999/02/22-rdf-syntax-ns#"
   xmlns:svg="http://www.w3.org/2000/svg"
   xmlns="http://www.w3.org/2000/svg"
   xmlns:sodipodi="http://sodipodi.sourceforge.net/DTD/sodipodi-0.dtd"
   xmlns:inkscape="http://www.inkscape.org/namespaces/inkscape"
   version="1.1"
   x="0px"
   y="0px"
   viewBox="0 0 80.004082 80.004082"
   xml:space="preserve"
   id="svg878"
   sodipodi:docname="share.svg"
   width="80.004082"
   height="80.004082"
   inkscape:version="0.92.3 (2405546, 2018-03-11)"><metadata
     id="metadata884"><rdf:RDF><cc:Work
         rdf:about=""><dc:format>image/svg+xml</dc:format><dc:type
           rdf:resource="http://purl.org/dc/dcmitype/StillImage" /><dc:title></dc:title></cc:Work></rdf:RDF></metadata><defs
     id="defs882" /><sodipodi:namedview
     pagecolor="#ffffff"
     bordercolor="#666666"
     borderopacity="1"
     objecttolerance="10"
     gridtolerance="10"
     guidetolerance="10"
     inkscape:pageopacity="0"
     inkscape:pageshadow="2"
     inkscape:window-width="1918"
     inkscape:window-height="1034"
     id="namedview880"
     showgrid="false"
     inkscape:snap-object-midpoints="true"
     fit-margin-top="0"
     fit-margin-left="0"
     fit-margin-right="0"
     fit-margin-bottom="0"
     inkscape:zoom="4.1247896"
     inkscape:cx="-4.0702785"
     inkscape:cy="27.642463"
     inkscape:window-x="0"
     inkscape:window-y="22"
     inkscape:window-maximized="0"
     inkscape:current-layer="svg878" /><g
     transform="translate(51.338503,-982.72489)"
     id="g906" /><path
     id="path872"
     style="fill:#000000;stroke-width:0.84847713;stroke:none;stroke-opacity:1;fill-opacity:1"
     d="m 25.068003,48.401202 c 2.507109,0 4.741404,-1.175357 6.192525,-3.00007 l 13.053104,6.377354 c -0.172088,0.602904 -0.270069,1.236827 -0.270069,1.894211 0,3.814832 3.103488,6.91832 6.91832,6.91832 3.814833,0 6.918735,-3.103488 6.918735,-6.91832 0,-3.814833 -3.103902,-6.918735 -6.918735,-6.918735 -1.933569,0 -3.682154,0.799487 -4.938713,2.082664 L 32.75106,42.35228 c 0.145573,-0.599227 0.231228,-1.22155 0.231228,-1.864951 0,-0.740087 -0.10958,-1.453763 -0.300467,-2.133673 l 12.814315,-6.826399 c 1.266552,1.634603 3.242638,2.693025 5.465747,2.693025 3.814833,0 6.918735,-3.103902 6.918735,-6.918735 0,-3.814832 -3.103902,-6.918734 -6.918735,-6.918734 -3.814832,0 -6.91832,3.103902 -6.91832,6.918734 0,0.376129 0.03838,0.742625 0.09643,1.102647 l -13.055434,6.954831 c -1.452727,-1.701823 -3.60898,-2.785983 -6.016554,-2.785983 -4.363775,10e-7 -7.914287,3.550513 -7.914287,7.914287 0,4.363775 3.550512,7.913873 7.914287,7.913873 z m 25.89388,1.746669 c 1.94346,0 3.524826,1.581366 3.524826,3.524826 0,1.94346 -1.581366,3.524411 -3.524826,3.524411 -1.943459,0 -3.524411,-1.580951 -3.524411,-3.524411 0,-1.94346 1.580952,-3.524826 3.524411,-3.524826 z m 0,-26.371149 c 1.94346,0 3.524826,1.581366 3.524826,3.524825 0,1.94346 -1.581366,3.524826 -3.524826,3.524826 -1.943459,0 -3.524411,-1.581366 -3.524411,-3.524826 0,-1.94346 1.580952,-3.524825 3.524411,-3.524825 z m -25.89388,12.19023 c 2.492401,0 4.520377,2.027976 4.520377,4.520377 0,2.492402 -2.027976,4.519964 -4.520377,4.519964 -2.492402,0 -4.520378,-2.027562 -4.520378,-4.519964 0,-2.492401 2.027976,-4.520377 4.520378,-4.520377 z M 80.004082,40.00201 A 40.002041,40.002041 0 0 1 40.002041,80.00411 40.002041,40.002041 0 0 1 0,40.00201 40.002041,40.002041 0 0 1 40.002041,0 40.002041,40.002041 0 0 1 80.004082,40.00201 Z" /></svg>