<?xml version="1.0" encoding="UTF-8" standalone="no"?>
<svg
   xmlns:dc="http://purl.org/dc/elements/1.1/"
   xmlns:cc="http://creativecommons.org/ns#"
   xmlns:rdf="http://www.w3.org/1999/02/22-rdf-syntax-ns#"
   xmlns:svg="http://www.w3.org/2000/svg"
   xmlns="http://www.w3.org/2000/svg"
   xmlns:sodipodi="http://sodipodi.sourceforge.net/DTD/sodipodi-0.dtd"
   xmlns:inkscape="http://www.inkscape.org/namespaces/inkscape"
   version="1.1"
   x="0px"
   y="0px"
   viewBox="0 0 80 80.000023"
   id="svg912"
   sodipodi:docname="play.svg"
   width="80"
   height="80.000023"
   inkscape:version="0.92.3 (2405546, 2018-03-11)">
  <metadata
     id="metadata918">
    <rdf:RDF>
      <cc:Work
         rdf:about="">
        <dc:format>image/svg+xml</dc:format>
        <dc:type
           rdf:resource="http://purl.org/dc/dcmitype/StillImage" />
        <dc:title></dc:title>
      </cc:Work>
    </rdf:RDF>
  </metadata>
  <defs
     id="defs916" />
  <sodipodi:namedview
     pagecolor="#ffffff"
     bordercolor="#666666"
     borderopacity="1"
     objecttolerance="10"
     gridtolerance="10"
     guidetolerance="10"
     inkscape:pageopacity="0"
     inkscape:pageshadow="2"
     inkscape:window-width="1918"
     inkscape:window-height="1055"
     id="namedview914"
     showgrid="false"
     fit-margin-top="0"
     fit-margin-left="0"
     fit-margin-right="0"
     fit-margin-bottom="0"
     inkscape:zoom="7"
     inkscape:cx="40.714286"
     inkscape:cy="21.430632"
     inkscape:window-x="0"
     inkscape:window-y="0"
     inkscape:window-maximized="0"
     inkscape:current-layer="svg912" />
  <g
     transform="translate(-10,-962.36218)"
     id="g906">
    <path
       style="color:#000000;display:inline;overflow:visible;visibility:visible;fill:#000000;stroke:none;enable-background:accumulate"
       d="m 50,962.36218 c -22.09127,0 -40,17.9088 -40,40.00002 0,22.0912 17.90873,40 40,40 22.09127,0 40,-17.9088 40,-40 0,-22.09122 -17.90873,-40.00002 -40,-40.00002 z m -8.875,21 c 0.72527,-0.017 1.48771,0.1727 2.21875,0.5938 l 23.5,14.4687 c 1.28066,0.7902 2.15625,2.24082 2.15625,3.93752 0,1.6967 -0.87559,3.1472 -2.15625,3.9375 l -23.5,14.4687 c -2.92414,1.6844 -6.26945,-0.4618 -6.34375,-4 v -28.84372 c 0.0556,-2.6537 1.9492,-4.5104 4.125,-4.5625 z"
       marker="none"
       visibility="visible"
       display="inline"
       overflow="visible"
       id="path904"
       inkscape:connector-curvature="0" />
  </g>
</svg>
