<?xml version="1.0" encoding="UTF-8" standalone="no"?>
<svg
   xmlns:dc="http://purl.org/dc/elements/1.1/"
   xmlns:cc="http://creativecommons.org/ns#"
   xmlns:rdf="http://www.w3.org/1999/02/22-rdf-syntax-ns#"
   xmlns:svg="http://www.w3.org/2000/svg"
   xmlns="http://www.w3.org/2000/svg"
   xmlns:sodipodi="http://sodipodi.sourceforge.net/DTD/sodipodi-0.dtd"
   xmlns:inkscape="http://www.inkscape.org/namespaces/inkscape"
   version="1.1"
   x="0px"
   y="0px"
   viewBox="0 0 77.010933 77.005409"
   enable-background="new 0 0 96 96"
   xml:space="preserve"
   id="svg8"
   sodipodi:docname="stop.svg"
   width="77.010933"
   height="77.005409"
   inkscape:version="0.92.3 (2405546, 2018-03-11)"><metadata
     id="metadata14"><rdf:RDF><cc:Work
         rdf:about=""><dc:format>image/svg+xml</dc:format><dc:type
           rdf:resource="http://purl.org/dc/dcmitype/StillImage" /><dc:title></dc:title></cc:Work></rdf:RDF></metadata><defs
     id="defs12" /><sodipodi:namedview
     pagecolor="#ffffff"
     bordercolor="#666666"
     borderopacity="1"
     objecttolerance="10"
     gridtolerance="10"
     guidetolerance="10"
     inkscape:pageopacity="0"
     inkscape:pageshadow="2"
     inkscape:window-width="1918"
     inkscape:window-height="1034"
     id="namedview10"
     showgrid="false"
     fit-margin-top="0"
     fit-margin-left="0"
     fit-margin-right="0"
     fit-margin-bottom="0"
     inkscape:zoom="1.9666667"
     inkscape:cx="-104.88439"
     inkscape:cy="26.502409"
     inkscape:window-x="0"
     inkscape:window-y="22"
     inkscape:window-maximized="0"
     inkscape:current-layer="svg8" /><path
     d="m 38.505438,0 c -20.704,0.356 -38.86600006,17.244 -38.50000006,38.5 0.355,20.703 17.24400006,38.865 38.50000006,38.5 20.704,-0.357 38.868,-17.244 38.5,-38.5 -0.366,-21.254 -17.245,-38.134 -38.5,-38.5 z m 13.24,50.24 c 0,0.816 -0.683,1.5 -1.5,1.5 -7.826,0 -15.652,0 -23.479,0 -0.818,0 -1.5,-0.684 -1.5,-1.5 0,-7.826 0,-15.651 0,-23.479 0,-0.441 0.161,-0.777 0.402,-1.017 0.012,-0.015 0.026,-0.028 0.039,-0.042 0.014,-0.014 0.027,-0.028 0.042,-0.04 0.24,-0.241 0.576,-0.402 1.017,-0.402 7.826,0 15.652,0 23.479,0 0.817,0 1.5,0.682 1.5,1.501 0,7.828 0,15.653 0,23.479 z"
     id="path2"
     inkscape:connector-curvature="0" /></svg>